<svg width="56" height="36" viewBox="0 0 56 36" fill="none" xmlns="http://www.w3.org/2000/svg">
<path d="M3.52686 0.0990906H52.2234C54.1435 0.0990906 55.7017 1.48014 55.7017 3.18341V32.4705C55.7017 34.1722 54.1435 35.5533 52.2234 35.5533H3.52686C1.60508 35.5534 0.048584 34.1722 0.048584 32.4706V3.18341C0.048584 1.48014 1.6068 0.0990906 3.52686 0.0990906Z" fill="#26A6D1"/>
<path d="M11.1666 12.4304L6.29565 23.2096H12.1269L12.8498 21.491H14.5021L15.225 23.2096H21.6436V21.8979L22.2155 23.2096H25.5357L26.1076 21.8702V23.2096H39.4564L41.0795 21.5356L42.5993 23.2096L49.4556 23.2235L44.5692 17.8501L49.4556 12.4304H42.7057L41.1256 14.0735L39.6536 12.4304H25.1319L23.885 15.2126L22.6087 12.4304H16.7897V13.6975L16.1424 12.4304C16.1424 12.4304 11.1666 12.4304 11.1666 12.4304ZM12.2949 13.9611H15.1373L18.3682 21.2705V13.9611H21.4819L23.9774 19.2019L26.2773 13.9611H29.3755V21.6959H27.4903L27.4749 15.6349L24.7265 21.6959H23.0402L20.2764 15.6349V21.6959H16.3981L15.6629 19.9618H11.6907L10.957 21.6943H8.87905L12.2949 13.9611ZM31.1002 13.9611H38.7657L41.1103 16.4936L43.5304 13.9611H45.8749L42.3126 17.8486L45.8749 21.6913H43.424L41.0795 19.1294L38.6471 21.6913H31.1002V13.9611ZM13.6776 15.2697L12.369 18.3588H14.9848L13.6776 15.2697ZM32.9932 15.5626V16.9745H37.1751V18.5483H32.9932V20.0898H37.6838L39.8633 17.8193L37.7762 15.5612H32.9932V15.5626Z" fill="white"/>
</svg>
