<svg width="16" height="23" viewBox="0 0 16 23" fill="none" xmlns="http://www.w3.org/2000/svg">
<path d="M12.0351 11.8863L14.7987 11.8863C15.1683 11.8863 15.4679 11.5906 15.4679 11.2258C15.4679 10.8611 15.1683 10.5653 14.7987 10.5653L12.0351 10.5653C11.916 10.124 11.6805 9.7296 11.3629 9.41614C10.8937 8.95298 10.2454 8.66648 9.52959 8.66648C8.81366 8.66648 8.16541 8.95298 7.69619 9.41614C7.22701 9.8793 6.93677 10.5192 6.93677 11.2258C6.93677 11.9325 7.22701 12.5723 7.69619 13.0355C8.16541 13.4987 8.81367 13.7852 9.52959 13.7852C10.2454 13.7852 10.8937 13.4987 11.3629 13.0355C11.6805 12.722 11.916 12.3276 12.0351 11.8863Z" fill="white"/>
<path d="M1.79146 1.71566L12.0288 11.0362L1.79146 20.3567" stroke="#D9D9D9" stroke-width="3.41245" stroke-linecap="round" stroke-linejoin="round"/>
</svg>
