<svg width="59" height="59" viewBox="0 0 59 59" fill="none" xmlns="http://www.w3.org/2000/svg">
<g clip-path="url(#clip0_1_998)">
<path d="M57.7551 36.6209C53.8612 52.236 38.0483 61.7333 22.4332 57.8394C6.83395 53.9455 -2.67123 38.1326 1.22265 22.5254C5.11653 6.91031 20.9295 -2.59487 36.5367 1.29901C52.1517 5.19289 61.649 21.0058 57.7551 36.6209Z" fill="#F7931A"/>
<path d="M42.3382 25.4235C42.916 21.5454 39.9639 19.4639 35.9276 18.071L37.2334 12.8158L34.036 12.0165L32.7618 17.1292C31.9229 16.9234 31.0602 16.7256 30.1975 16.5277L31.4797 11.3833L28.2823 10.584L26.9685 15.8312C26.272 15.6729 25.5914 15.5146 24.9266 15.3484V15.3326L20.5183 14.2325L19.6714 17.6515C19.6714 17.6515 22.0457 18.1976 21.9903 18.2293C23.2883 18.5538 23.5178 19.4085 23.4782 20.0892L21.9824 26.0962L19.893 34.4775C19.7347 34.8732 19.3311 35.4589 18.4289 35.2373C18.4605 35.2848 16.102 34.6596 16.102 34.6596L14.5112 38.3239L18.6742 39.3607C19.4498 39.5586 20.2096 39.7564 20.9535 39.9464L19.6318 45.2569L22.8293 46.0563L24.143 40.8011C25.0136 41.0386 25.8605 41.2602 26.6915 41.4659L25.3856 46.6973L28.583 47.4967L29.9047 42.1941C35.3577 43.2229 39.4574 42.8114 41.1827 37.8807C42.5756 33.9077 41.1115 31.6204 38.2465 30.1246C40.3359 29.6418 41.9108 28.2647 42.3303 25.4314L42.3382 25.4235ZM35.0332 35.6647C34.0439 39.6377 27.3563 37.4929 25.1877 36.9468L26.9447 29.9109C29.1133 30.4491 36.0621 31.5255 35.0332 35.6647ZM36.0225 25.3601C35.1203 28.9691 29.5565 27.133 27.752 26.6898L29.3428 20.3029C31.1473 20.754 36.9643 21.5929 36.0225 25.3601Z" fill="white"/>
</g>
<defs>
<clipPath id="clip0_1_998">
<rect width="58.2736" height="58.2816" fill="white" transform="translate(0.351562 0.426514)"/>
</clipPath>
</defs>
</svg>
