<svg width="24" height="24" viewBox="0 0 24 24" fill="none" xmlns="http://www.w3.org/2000/svg">
<path fill-rule="evenodd" clip-rule="evenodd" d="M6.76438 10.5433C7.54543 11.3244 7.54543 12.5907 6.76438 13.3718L0.585787 19.5504C-0.195262 20.3314 -0.195262 21.5977 0.585786 22.3788L1.29289 23.0859C2.07394 23.8669 3.34027 23.8669 4.12132 23.0859L10.2999 16.9073C11.081 16.1262 12.3473 16.1262 13.1283 16.9073L19.3069 23.0859C20.088 23.8669 21.3543 23.8669 22.1354 23.0859L22.8425 22.3788C23.6235 21.5977 23.6235 20.3314 22.8425 19.5504L16.6639 13.3718C15.8828 12.5907 15.8828 11.3244 16.6639 10.5433L22.8425 4.36473C23.6235 3.58368 23.6235 2.31735 22.8425 1.5363L22.1354 0.829195C21.3543 0.0481461 20.088 0.0481465 19.3069 0.829195L13.1283 7.00779C12.3473 7.78884 11.081 7.78884 10.2999 7.00779L4.12132 0.829195C3.34027 0.0481461 2.07394 0.0481461 1.29289 0.829195L0.585786 1.5363C-0.195262 2.31735 -0.195262 3.58368 0.585787 4.36473L6.76438 10.5433Z" fill="#A7A7A7"/>
</svg>
