<svg width="55" height="54" viewBox="0 0 55 54" fill="none" xmlns="http://www.w3.org/2000/svg">
<circle cx="27.5221" cy="27.4008" r="26.5255" fill="url(#paint0_linear_1_1009)"/>
<path fill-rule="evenodd" clip-rule="evenodd" d="M23.0664 34.1095L18.2392 29.2823C17.664 28.7071 16.729 28.7071 16.1538 29.2823C15.5786 29.8575 15.5786 30.7926 16.1538 31.3677C16.1538 31.3677 20.8688 36.0828 22.7433 37.9573C23.292 38.5059 24.1164 38.6696 24.8332 38.3732C25.5485 38.0768 26.016 37.3777 26.016 36.6019L26.016 17.0221C26.016 16.208 25.3553 15.5472 24.5412 15.5472C23.7271 15.5472 23.0664 16.208 23.0664 17.0221L23.0664 34.1095Z" fill="white"/>
<path fill-rule="evenodd" clip-rule="evenodd" d="M31.9753 19.8141L36.8821 24.0437C37.4986 24.5764 38.4307 24.5064 38.9616 23.8899C39.494 23.2733 39.4248 22.3414 38.8083 21.81L32.1951 16.1095C31.6273 15.62 30.825 15.5069 30.1436 15.8183C29.4623 16.1311 29.0257 16.8112 29.0257 17.5613L29.0257 37.6746C29.0257 38.4882 29.6864 39.1493 30.5005 39.1493C31.3146 39.1493 31.9753 38.4882 31.9753 37.6746L31.9753 19.8141Z" fill="white"/>
<defs>
<linearGradient id="paint0_linear_1_1009" x1="3.11902" y1="-2.16098" x2="60.3689" y2="27.2798" gradientUnits="userSpaceOnUse">
<stop stop-color="#75A43E"/>
<stop offset="1" stop-color="#007741"/>
</linearGradient>
</defs>
</svg>
