<svg width="40" height="40" viewBox="0 0 40 40" fill="none" xmlns="http://www.w3.org/2000/svg">
<path d="M19.9306 39.9247C30.8862 39.9247 39.7674 31.0434 39.7674 20.0878C39.7674 9.13223 30.8862 0.250977 19.9306 0.250977C8.97501 0.250977 0.09375 9.13223 0.09375 20.0878C0.09375 31.0434 8.97501 39.9247 19.9306 39.9247Z" fill="#627EEA"/>
<path d="M20.5469 5.21021V16.2073L29.8417 20.3606L20.5469 5.21021Z" fill="white"/>
<path d="M20.548 5.21021L11.252 20.3606L20.548 16.2073V5.21021Z" fill="white"/>
<path d="M20.5469 27.4867V34.959L29.8479 22.0911L20.5469 27.4867Z" fill="white"/>
<path d="M20.548 34.959V27.4854L11.252 22.0911L20.548 34.959Z" fill="white"/>
<path d="M11.252 20.3607L20.548 25.7576V16.2098L11.252 20.3607Z" fill="white"/>
</svg>
