<svg width="18" height="22" viewBox="0 0 18 22" fill="none" xmlns="http://www.w3.org/2000/svg">
<path d="M17.2319 10.2744C16.9537 9.99625 16.6162 9.8573 16.2187 9.8573H15.7423V6.9968C15.7423 5.16939 15.0869 3.60032 13.7759 2.28932C12.465 0.978278 10.896 0.322754 9.06837 0.322754C7.24075 0.322754 5.67152 0.978278 4.36068 2.28927C3.04964 3.60032 2.39432 5.16934 2.39432 6.9968V9.8573H1.91767C1.52053 9.8573 1.18278 9.99625 0.904667 10.2744C0.626553 10.5523 0.487549 10.89 0.487549 11.2875V19.8685C0.487549 20.2656 0.626606 20.6034 0.904667 20.8816C1.18278 21.1595 1.52053 21.2986 1.91767 21.2986H16.2191C16.6165 21.2986 16.954 21.1596 17.2322 20.8816C17.5101 20.6034 17.6493 20.2656 17.6493 19.8685V11.2874C17.6496 10.8902 17.5101 10.5525 17.2319 10.2744ZM12.8821 9.8573H5.25466V6.9968C5.25466 5.94409 5.62717 5.04521 6.37202 4.30046C7.11698 3.5556 8.01571 3.18325 9.06853 3.18325C10.1214 3.18325 11.02 3.55555 11.765 4.30046C12.5096 5.04515 12.8821 5.94409 12.8821 6.9968V9.8573Z" fill="#797979"/>
</svg>
