<svg width="21" height="20" viewBox="0 0 20 20" fill="none" xmlns="http://www.w3.org/2000/svg">
<path fill-rule="evenodd" clip-rule="evenodd" d="M2.04004 2.03565C2.82109 1.2546 4.08742 1.2546 4.86847 2.03565L9.80679 6.97397L14.745 2.03579C15.526 1.25475 16.7923 1.25475 17.5734 2.03579L17.9207 2.38312C18.7018 3.16417 18.7018 4.4305 17.9207 5.21155L12.9825 10.1497L17.9188 15.086C18.6998 15.867 18.6998 17.1334 17.9188 17.9144L17.5715 18.2617C16.7904 19.0428 15.5241 19.0428 14.743 18.2617L9.80679 13.3255L4.87039 18.2619C4.08934 19.0429 2.82301 19.0429 2.04196 18.2619L1.69464 17.9146C0.913588 17.1335 0.91359 15.8672 1.69464 15.0861L6.63104 10.1497L1.69271 5.2114C0.911665 4.43035 0.911666 3.16402 1.69271 2.38297L2.04004 2.03565Z" fill="white"/>
<path d="M4.86847 2.03565L5.57557 1.32854L4.86847 2.03565ZM9.80679 6.97397L10.5139 7.68108L9.80679 8.38818L9.09968 7.68108L9.80679 6.97397ZM14.745 2.03579L14.0379 1.32869L14.0379 1.32869L14.745 2.03579ZM17.9207 5.21155L17.2136 4.50444L17.2136 4.50444L17.9207 5.21155ZM12.9825 10.1497L12.2754 10.8568L11.5683 10.1497L12.2754 9.44261L12.9825 10.1497ZM17.9188 15.086L17.2117 15.7931L17.9188 15.086ZM14.743 18.2617L15.4501 17.5546L14.743 18.2617ZM9.80679 13.3255L9.09968 12.6184L9.80679 11.9113L10.5139 12.6184L9.80679 13.3255ZM4.87039 18.2619L5.57749 18.969L4.87039 18.2619ZM1.69464 15.0861L2.40174 15.7932L1.69464 15.0861ZM6.63104 10.1497L7.33814 9.44261L8.04525 10.1497L7.33814 10.8568L6.63104 10.1497ZM1.69271 5.2114L0.985607 5.9185L1.69271 5.2114ZM4.16136 2.74275C3.77083 2.35223 3.13767 2.35223 2.74714 2.74275L1.33293 1.32854C2.50451 0.156965 4.404 0.156969 5.57557 1.32854L4.16136 2.74275ZM9.09968 7.68108L4.16136 2.74275L5.57557 1.32854L10.5139 6.26686L9.09968 7.68108ZM15.4521 2.7429L10.5139 7.68108L9.09968 6.26686L14.0379 1.32869L15.4521 2.7429ZM16.8663 2.7429C16.4758 2.35238 15.8426 2.35238 15.4521 2.7429L14.0379 1.32869C15.2094 0.157114 17.1089 0.157115 18.2805 1.32869L16.8663 2.7429ZM17.2136 3.09023L16.8663 2.7429L18.2805 1.32869L18.6278 1.67601L17.2136 3.09023ZM17.2136 4.50444C17.6041 4.11391 17.6041 3.48075 17.2136 3.09023L18.6278 1.67601C19.7994 2.84759 19.7994 4.74708 18.6278 5.91865L17.2136 4.50444ZM12.2754 9.44261L17.2136 4.50444L18.6278 5.91865L13.6896 10.8568L12.2754 9.44261ZM17.2117 15.7931L12.2754 10.8568L13.6896 9.44261L18.6259 14.3789L17.2117 15.7931ZM17.2117 17.2073C17.6022 16.8168 17.6022 16.1836 17.2117 15.7931L18.6259 14.3789C19.7975 15.5504 19.7975 17.4499 18.6259 18.6215L17.2117 17.2073ZM16.8644 17.5546L17.2117 17.2073L18.6259 18.6215L18.2786 18.9688L16.8644 17.5546ZM15.4501 17.5546C15.8407 17.9451 16.4738 17.9451 16.8644 17.5546L18.2786 18.9688C17.107 20.1404 15.2075 20.1404 14.0359 18.9688L15.4501 17.5546ZM10.5139 12.6184L15.4501 17.5546L14.0359 18.9688L9.09968 14.0326L10.5139 12.6184ZM4.16328 17.5548L9.09968 12.6184L10.5139 14.0326L5.57749 18.969L4.16328 17.5548ZM2.74907 17.5548C3.13959 17.9453 3.77276 17.9453 4.16328 17.5548L5.57749 18.969C4.40592 20.1406 2.50643 20.1406 1.33485 18.969L2.74907 17.5548ZM2.40174 17.2074L2.74907 17.5548L1.33485 18.969L0.987529 18.6217L2.40174 17.2074ZM2.40174 15.7932C2.01122 16.1838 2.01122 16.8169 2.40174 17.2074L0.987529 18.6217C-0.184044 17.4501 -0.18404 15.5506 0.987531 14.379L2.40174 15.7932ZM7.33814 10.8568L2.40174 15.7932L0.987531 14.379L5.92393 9.44261L7.33814 10.8568ZM2.39982 4.50429L7.33814 9.44261L5.92393 10.8568L0.985607 5.9185L2.39982 4.50429ZM2.39982 3.09008C2.0093 3.4806 2.0093 4.11377 2.39982 4.50429L0.985607 5.9185C-0.185966 4.74693 -0.185965 2.84744 0.985607 1.67586L2.39982 3.09008ZM2.74714 2.74275L2.39982 3.09008L0.985607 1.67586L1.33293 1.32854L2.74714 2.74275Z" fill="#75A43E"/>
</svg>
