<svg width="22" height="22" viewBox="0 0 22 22" fill="none" xmlns="http://www.w3.org/2000/svg">
<path fill-rule="evenodd" clip-rule="evenodd" d="M11.0684 21.231C16.8618 21.231 21.5584 16.5344 21.5584 10.741C21.5584 4.94751 16.8618 0.250977 11.0684 0.250977C5.2749 0.250977 0.578369 4.94751 0.578369 10.741C0.578369 16.5344 5.2749 21.231 11.0684 21.231ZM9.92874 12.0791C9.84135 12.6669 10.3399 13.152 10.9342 13.152H11.4274C11.7181 13.152 11.9588 12.926 11.9771 12.636C12.0368 12.0833 12.2731 11.6011 12.6861 11.1893L13.3463 10.538C13.8624 10.0191 14.2238 9.54816 14.4302 9.1252C14.6366 8.69658 14.7399 8.24255 14.7399 7.76317C14.7399 6.70853 14.422 5.89358 13.7863 5.31833C13.1506 4.73742 12.2569 4.44698 11.1051 4.44698C9.96409 4.44698 9.06216 4.75152 8.39929 5.36062C8.0062 5.72483 7.72869 6.17271 7.56675 6.70428C7.37389 7.33738 7.94383 7.89007 8.60563 7.89007C9.1659 7.89007 9.58351 7.43372 9.97332 7.00788C10.0277 6.94842 10.0816 6.88955 10.1352 6.8326C10.3797 6.57317 10.703 6.44347 11.1051 6.44347C11.9527 6.44347 12.3764 6.92003 12.3764 7.87315C12.3764 8.18897 12.295 8.4907 12.132 8.7783C11.9689 9.06027 11.6402 9.42973 11.1458 9.88657C10.6568 10.3377 10.3199 10.7974 10.1352 11.2655C10.0437 11.4973 9.97489 11.7685 9.92874 12.0791ZM9.98853 14.8185C9.74401 15.0611 9.6218 15.3713 9.6218 15.7491C9.6218 16.1213 9.74128 16.4287 9.98035 16.6712C10.2249 16.9137 10.5454 17.035 10.9421 17.035C11.3387 17.035 11.6565 16.9137 11.8956 16.6712C12.14 16.4287 12.2623 16.1213 12.2623 15.7491C12.2623 15.3713 12.1374 15.0611 11.8874 14.8185C11.6429 14.5704 11.3278 14.4464 10.9421 14.4464C10.5562 14.4464 10.2384 14.5704 9.98853 14.8185Z" fill="#797979"/>
</svg>
