<svg width="40" height="13" viewBox="0 0 40 13" fill="none" xmlns="http://www.w3.org/2000/svg">
<path d="M15.1101 12.4688L17.1053 1.24597H20.2227L18.2899 12.4688H15.1101Z" fill="#3C58BF"/>
<path d="M15.1101 12.4688L17.6664 1.24597H20.2227L18.2899 12.4688H15.1101Z" fill="#293688"/>
<path d="M29.575 1.37062C28.9515 1.12122 27.954 0.871826 26.707 0.871826C23.5895 0.871826 21.345 2.43055 21.345 4.67511C21.345 6.35853 22.9037 7.23141 24.1507 7.79255C25.3976 8.35369 25.7717 8.72779 25.7717 9.22658C25.7717 9.97476 24.7742 10.3489 23.9013 10.3489C22.6543 10.3489 21.9685 10.1618 20.9085 9.72537L20.4721 9.53832L20.0356 12.0946C20.7838 12.4064 22.1555 12.7181 23.5895 12.7181C26.894 12.7181 29.0762 11.1594 29.0762 8.79014C29.0762 7.48081 28.2657 6.48323 26.3952 5.67269C25.273 5.11155 24.5871 4.79981 24.5871 4.23867C24.5871 3.73988 25.1483 3.24108 26.3952 3.24108C27.4552 3.24108 28.2034 3.42813 28.7645 3.67753L29.0762 3.80222L29.575 1.37062Z" fill="#3C58BF"/>
<path d="M29.575 1.37062C28.9515 1.12122 27.954 0.871826 26.707 0.871826C23.5895 0.871826 21.9061 2.43055 21.9061 4.67511C21.9061 6.35853 22.9037 7.23141 24.1507 7.79255C25.3976 8.35369 25.7717 8.72779 25.7717 9.22658C25.7717 9.97476 24.7742 10.3489 23.9013 10.3489C22.6543 10.3489 21.9685 10.1618 20.9085 9.72537L20.4721 9.53832L20.0356 12.0946C20.7838 12.4064 22.1555 12.7181 23.5895 12.7181C26.894 12.7181 29.0762 11.1594 29.0762 8.79014C29.0762 7.48081 28.2657 6.48323 26.3952 5.67269C25.273 5.11155 24.5871 4.79981 24.5871 4.23867C24.5871 3.73988 25.1483 3.24108 26.3952 3.24108C27.4552 3.24108 28.2034 3.42813 28.7645 3.67753L29.0762 3.80222L29.575 1.37062Z" fill="#293688"/>
<path d="M34.9371 1.24597C34.1889 1.24597 33.6278 1.30832 33.3161 2.05651L28.6399 12.4688H32.0067L32.6302 10.5983H36.6206L36.9946 12.4688H39.9874L37.3687 1.24597H34.9371V1.24597ZM33.5031 8.72784C33.6902 8.1667 34.7501 5.42335 34.7501 5.42335C34.7501 5.42335 34.9995 4.73751 35.1865 4.30107L35.3736 5.361C35.3736 5.361 35.9971 8.1667 36.1218 8.79019H33.5031V8.72784Z" fill="#3C58BF"/>
<path d="M35.6853 1.24597C34.9371 1.24597 34.376 1.30832 34.0642 2.05651L28.6399 12.4688H32.0067L32.6302 10.5983H36.6206L36.9946 12.4688H39.9874L37.3687 1.24597H35.6853V1.24597ZM33.5031 8.72784C33.7525 8.10435 34.7501 5.42335 34.7501 5.42335C34.7501 5.42335 34.9995 4.73751 35.1865 4.30107L35.3736 5.361C35.3736 5.361 35.9971 8.1667 36.1218 8.79019H33.5031V8.72784Z" fill="#293688"/>
<path d="M9.37392 9.10209L9.06218 7.48101C8.50104 5.61055 6.69292 3.55303 4.69775 2.55545L7.50345 12.5313H10.8703L15.9206 1.30847H12.5537L9.37392 9.10209Z" fill="#3C58BF"/>
<path d="M9.37392 9.10209L9.06218 7.48101C8.50104 5.61055 6.69292 3.55303 4.69775 2.55545L7.50345 12.5313H10.8703L15.9206 1.30847H13.1772L9.37392 9.10209Z" fill="#293688"/>
<path d="M0.70752 1.24597L1.26866 1.37067C5.25899 2.3059 8.00234 4.67516 9.06227 7.48086L7.93999 2.18121C7.75295 1.43302 7.19181 1.24597 6.50597 1.24597H0.70752V1.24597Z" fill="#FFBC00"/>
<path d="M0.70752 1.24597C4.69785 2.18121 8.00234 4.61281 9.06227 7.41851L8.00234 2.99174C7.81529 2.24355 7.19181 1.80711 6.50597 1.80711L0.70752 1.24597Z" fill="#F7981D"/>
<path d="M0.70752 1.24597C4.69785 2.18121 8.00234 4.61281 9.06227 7.41851L8.31409 4.98691C8.12704 4.23872 7.87764 3.49053 7.00476 3.17879L0.70752 1.24597Z" fill="#ED7C00"/>
<path d="M12.4915 8.72796L10.3717 6.6081L9.37407 8.97736L9.12468 7.41864C8.56354 5.54817 6.75542 3.49065 4.76025 2.49307L7.56595 12.4689H10.9328L12.4915 8.72796Z" fill="#051244"/>
<path d="M18.2899 12.4689L15.6089 9.72559L15.1101 12.4689H18.2899Z" fill="#051244"/>
<path d="M25.46 8.60309C25.7094 8.85248 25.8341 9.03953 25.7717 9.28893C25.7717 10.0371 24.7742 10.4112 23.9013 10.4112C22.6543 10.4112 21.9685 10.2242 20.9085 9.78772L20.4721 9.60067L20.0356 12.157C20.7838 12.4687 22.1555 12.7805 23.5895 12.7805C25.5847 12.7805 27.2058 12.2193 28.141 11.2217L25.46 8.60309Z" fill="#051244"/>
<path d="M29.0764 12.4687H32.0068L32.6303 10.5982H36.6206L36.9947 12.4687H39.9875L38.9275 7.9172L35.1866 4.30096L35.3737 5.29855C35.3737 5.29855 35.9971 8.10425 36.1218 8.72774H33.5032C33.7526 8.10425 34.7502 5.42324 34.7502 5.42324C34.7502 5.42324 34.9996 4.73741 35.1866 4.30096" fill="#051244"/>
</svg>
