<svg width="78" height="64" viewBox="0 0 78 64" fill="none" xmlns="http://www.w3.org/2000/svg">
<path d="M65.9818 0.594086H11.5078C5.41921 0.594086 0.46582 5.54748 0.46582 11.6361V52.8596C0.46582 58.9482 5.41921 63.9016 11.5078 63.9016H65.9818C72.0704 63.9016 77.0238 58.9482 77.0238 52.8596V11.6361C77.0238 5.54748 72.0704 0.594086 65.9818 0.594086ZM72.6071 38.8731H56.4121C52.759 38.8731 49.7868 35.9011 49.7868 32.2478C49.7868 28.5946 52.7588 25.6226 56.4121 25.6226H72.6071V38.8731ZM72.6071 21.2058H56.4121C50.3235 21.2058 45.3701 26.1592 45.3701 32.2478C45.3701 38.3364 50.3235 43.2898 56.4121 43.2898H72.6071V52.8596C72.6071 56.5127 69.6351 59.4848 65.9818 59.4848H11.5078C7.85472 59.4848 4.88256 56.5128 4.88256 52.8596V11.6361C4.88256 7.98298 7.85457 5.01083 11.5078 5.01083H65.9818C69.6349 5.01083 72.6071 7.98283 72.6071 11.6361V21.2058Z" fill="url(#paint0_linear_64_53)"/>
<path d="M59.3572 30.0396H56.4127C55.193 30.0396 54.2043 31.0285 54.2043 32.248C54.2043 33.4677 55.1932 34.4564 56.4127 34.4564H59.3572C60.5769 34.4564 61.5656 33.4676 61.5656 32.248C61.5656 31.0283 60.5769 30.0396 59.3572 30.0396Z" fill="url(#paint1_linear_64_53)"/>
<defs>
<linearGradient id="paint0_linear_64_53" x1="3.52872" y1="-3.02913" x2="78.8606" y2="43.8186" gradientUnits="userSpaceOnUse">
<stop stop-color="#75A43E"/>
<stop offset="1" stop-color="#007741"/>
</linearGradient>
<linearGradient id="paint1_linear_64_53" x1="54.4989" y1="29.7869" x2="60.2896" y2="34.75" gradientUnits="userSpaceOnUse">
<stop stop-color="#75A43E"/>
<stop offset="1" stop-color="#007741"/>
</linearGradient>
</defs>
</svg>
